<?xml version="1.0" encoding="UTF-8"?>
<svg xmlns="http://www.w3.org/2000/svg" viewBox="0 0 330 168">
  <defs>
    <style>
      .cls-1, .cls-2 {
        fill: aqua;
      }

      .cls-3 {
        fill: none;
      }

      .cls-3, .cls-4 {
        stroke: #000;
        stroke-miterlimit: 10;
      }

      .cls-2 {
        letter-spacing: -.02em;
      }

      .cls-5 {
        fill: #f0f;
      }

      .cls-6 {
        font-family: GlassAntiqua-Regular, 'Glass Antiqua';
        font-size: 72px;
      }

      .cls-7 {
        fill: #ff0;
      }
    </style>
  </defs>
  <g id="Layer_2">
    <path d="M20,149c-15.02-11.02-11.79-47.45,5-70,18.01-24.19,55.46-37.58,71-24,12.8,11.18,7.79,38.05,0,54-15.66,32.07-58.58,52.79-76,40Z"/>
    <path d="M173,73c-1,2.23,1.14,5.42,3,7,2.85,2.42,6.9,2.59,10,1,3.28-1.68,6.01-5.6,5-8-1.81-4.31-16-4.45-18,0Z"/>
    <polyline points="163.5 129.9 188 133 167.97 152.83"/>
    <path d="M282,69.56c3.33,1.34,6.67,6.66,10,15.97,0-7.98-1.82-19.16-10-15.97"/>
  </g>
  <g id="Layer_1">
    <path class="cls-5" d="M213,105.01c-13.16-9.82,9.75-32.41,26-32,15.51.39,35.65,21.99,21,32-10.69,7.31-37.71,6.94-47,0Z"/>
    <text class="cls-6" transform="translate(37.54 123.93)"><tspan class="cls-2" x="0" y="0">P</tspan><tspan class="cls-1" x="32.62" y="0">h</tspan><tspan class="cls-5" x="67.82" y="0">ig</tspan><tspan class="cls-7" x="117.93" y="0">me</tspan><tspan x="195.76" y="0">nt</tspan></text>
    <rect class="cls-1" x="295" y="123" width="23" height="32"/>
    <path d="M304,104s10.32,32.73-31.84,37.37c-.16.63,54.84,8.63,31.84-37.37Z"/>
    <ellipse class="cls-1" cx="278.5" cy="67" rx="12.5" ry="9"/>
    <path class="cls-1" d="M160.87,36.19c-.82,5.69-4.28,10.51-8.84,13.89-5.22,3.87-11.56,5.68-17.89,6.72-7.11,1.16-14.37,1.58-21.54,2.24s-14.6,1.27-21.89,2.03c-6.51.68-13.32,1.91-18.23,6.6-1.4,1.34.73,3.46,2.12,2.12,4.43-4.24,10.83-5.19,16.69-5.78,7.43-.74,14.86-1.38,22.3-2.07s14.45-1.11,21.57-2.29c6.49-1.08,13.03-3.03,18.38-6.98s9.28-9.22,10.22-15.69c.12-.81-.2-1.6-1.05-1.85-.7-.2-1.73.25-1.85,1.05h0Z"/>
    <path class="cls-1" d="M147.93,21.66c-.6,4.15-2.51,7.98-5.57,10.87-3.31,3.12-7.67,4.6-12.07,5.36-9.9,1.7-20.06.86-30.04,1.15-4.98.14-10.06.89-14.31,3.66-1.61,1.05-.11,3.65,1.51,2.59,3.94-2.57,8.6-3.16,13.21-3.26,5.21-.11,10.42.09,15.63-.08,9.38-.3,20.34-.29,27.77-6.91,3.62-3.23,6.06-7.77,6.76-12.57.27-1.89-2.62-2.7-2.89-.8h0Z"/>
    <path class="cls-1" d="M136.1,9.55c-4.57,5.97-12.56,7.65-19.65,7.99-7.69.37-15.82-.78-23.03,2.52-1.75.8-.23,3.39,1.51,2.59,3.63-1.66,7.67-1.93,11.61-1.99,4.26-.06,8.53.08,12.77-.33,7.38-.71,14.72-3.19,19.37-9.27,1.17-1.53-1.43-3.03-2.59-1.51h0Z"/>
    <path class="cls-1" d="M207.63,148.7c1.34-1.3,3.3-2.04,4.97-2.81s3.33-1.43,5.04-2.02c3.53-1.22,7.2-2.09,10.92-2.41,7.2-.6,14.51.79,20.65,4.7,1.63,1.04,3.14-1.55,1.51-2.59-6.67-4.25-14.79-5.82-22.61-5.07-3.99.38-7.92,1.28-11.7,2.62-1.95.69-3.87,1.49-5.74,2.37s-3.72,1.69-5.17,3.09.73,3.46,2.12,2.12h0Z"/>
    <path class="cls-1" d="M225.34,153.4c4.31-2.38,9.72-2.2,13.88.4,1.64,1.02,3.15-1.57,1.51-2.59-5.07-3.16-11.69-3.28-16.91-.4-1.69.93-.18,3.53,1.51,2.59h0Z"/>
    <path class="cls-1" d="M191.38,72.07c-1.01-.29-2.04-.23-2.99.2-.83.37-1.53,1.23-1.72,2.12-.23,1.04.08,2.15.9,2.85s1.76.96,2.8.97,2.34-.08,2.9-1.14c.27-.52.28-1.08.28-1.65,0-.42,0-.83,0-1.25s0-.9-.15-1.31c-.27-.74-.79-1.2-1.53-1.46-.39-.14-.84-.18-1.24-.23-.31-.04-.62-.05-.93-.02-.88.07-1.7.31-2.41.85-.75.58-1.19,1.39-1.31,2.32-.23,1.71.73,3.46,2.3,4.2.79.37,1.65.58,2.53.56.54-.01,1.1-.07,1.58-.32s.79-.72,1.01-1.2c.44-.98.63-1.97.46-3.05-.15-.95-.73-1.74-1.5-2.29-.73-.52-1.69-.69-2.56-.5-.99.23-1.75,1.05-2.05,2-.33,1.06.03,2.46,1.06,3,.74.39,1.67.3,2.28-.28.66-.62.74-1.64.19-2.36s-1.53-.98-2.31-.48c-.66.42-.99,1.35-.54,2.05.43.66,1.35.99,2.05.54l.05-.03-.36.15h.05c-.13,0-.27.02-.4.04h.05c-.13-.02-.27-.04-.4-.06.04,0,.07.01.1.03l-.36-.15.05.03-.3-.23s.06.05.08.08l-.23-.3.03.05-.15-.36.02.05-.05-.4s0,.07,0,.11l.05-.4-.02.05.15-.36-.03.05.23-.3s-.05.06-.08.08l.3-.23s-.06.04-.1.06l.36-.15s-.07.02-.11.03l.4-.05s-.08,0-.11,0l.4.05s-.08-.01-.11-.03l.36.15s-.08-.04-.12-.06l.3.23c-.06-.04-.1-.09-.14-.14l.23.3c-.04-.06-.07-.11-.1-.18l.15.36c-.04-.1-.07-.21-.09-.32l.05.4c-.02-.13-.01-.26,0-.39l-.05.4c.02-.13.06-.25.11-.38l-.15.36c.05-.1.1-.19.16-.28l-.23.3c.08-.11.17-.2.27-.28l-.3.23c.09-.06.18-.12.28-.16l-.36.15c.11-.05.23-.08.35-.1l-.4.05c.14-.02.28-.01.42,0l-.4-.05c.14.02.28.06.42.11l-.36-.15c.18.08.34.17.49.29l-.3-.23c.13.11.25.23.36.36l-.23-.3c.09.12.16.24.23.38l-.15-.36c.08.2.14.4.17.61l-.05-.4c.03.27.03.53,0,.8l.05-.4c-.05.35-.15.69-.28,1.02l.15-.36c-.09.21-.18.42-.31.59l.23-.3s-.06.06-.1.09l.3-.23s-.08.05-.12.07l.36-.15c-.09.03-.18.05-.28.06l.4-.05c-.39.05-.78.05-1.17,0l.4.05c-.34-.05-.66-.13-.98-.26l.36.15c-.24-.11-.47-.23-.68-.39l.3.23c-.19-.14-.35-.3-.5-.49l.23.3c-.14-.18-.25-.37-.34-.58l.15.36c-.09-.23-.16-.47-.19-.71l.05.4c-.02-.2-.02-.4,0-.6l-.05.4c.03-.2.08-.38.15-.57l-.15.36c.06-.14.14-.27.23-.4l-.23.3c.11-.14.23-.26.37-.37l-.3.23c.16-.12.32-.22.5-.3l-.36.15c.25-.1.5-.17.76-.21l-.4.05c.41-.06.82-.05,1.23,0l-.4-.05c.3.04.6.09.88.2l-.36-.15c.07.03.12.06.18.11l-.3-.23s.07.06.1.1l-.23-.3c.04.06.07.11.1.17l-.15-.36c.03.09.05.17.07.26l-.05-.4c.05.41.02.84.03,1.25s.03.88-.01,1.31l.05-.4c-.01.07-.03.14-.05.21l.15-.36s-.04.08-.06.12l.23-.3s-.06.07-.09.1l.3-.23s-.07.05-.12.07l.36-.15c-.09.04-.17.06-.27.07l.4-.05c-.52.07-1.07.09-1.59.03l.4.05c-.24-.03-.46-.09-.69-.17l.36.15c-.17-.08-.33-.17-.49-.28l.3.23c-.11-.09-.21-.18-.3-.29l.23.3c-.08-.11-.15-.22-.21-.35l.15.36c-.04-.11-.07-.21-.09-.33l.05.4c-.01-.11-.01-.22,0-.33l-.05.4c.02-.13.05-.26.1-.39l-.15.36c.06-.15.14-.28.24-.41l-.23.3c.1-.13.21-.24.34-.34l-.3.23c.12-.09.24-.16.38-.22l-.36.15c.19-.08.39-.13.6-.16l-.4.05c.26-.03.52-.02.78.01l-.4-.05c.16.02.31.06.46.1.75.21,1.67-.26,1.85-1.05s-.24-1.62-1.05-1.85h0Z"/>
    <rect class="cls-1" x="16" y="108" width="12" height="12"/>
    <path d="M130.95,99.95h0c2,0,3.62,1.07,3.95,2.61.19.88-.07,1.81-.71,2.61-.69.87-1.74,1.49-2.96,1.75-.39.08-.79.13-1.19.13-2,0-3.62-1.07-3.95-2.61-.19-.88.07-1.81.71-2.61.69-.87,1.74-1.49,2.96-1.75.39-.08.79-.13,1.19-.13M130.95,98.95c-.46,0-.92.05-1.39.15-2.97.64-4.96,3.12-4.44,5.55.44,2.04,2.51,3.4,4.93,3.4.46,0,.92-.05,1.39-.15,2.97-.64,4.96-3.12,4.44-5.55-.44-2.04-2.51-3.4-4.93-3.4h0Z"/>
    <path d="M144.84,97.99h0c.09,0,.19,0,.28,0,1.12.07,2.14.5,2.88,1.24.71.7,1.06,1.59,1.01,2.5-.11,1.83-1.87,3.26-4.01,3.26-.09,0-.19,0-.28,0-2.26-.13-4-1.81-3.89-3.73.11-1.83,1.87-3.26,4.01-3.26M144.84,96.99c-2.66,0-4.87,1.83-5.01,4.21-.14,2.48,2.02,4.63,4.83,4.79.11,0,.23,0,.34,0,2.66,0,4.87-1.83,5.01-4.21.14-2.48-2.02-4.63-4.83-4.79-.11,0-.23-.01-.34,0h0Z"/>
    <path class="cls-3" d="M135,102s2.33-3,5.44-1"/>
    <circle class="cls-4" cx="131.62" cy="102" r="2"/>
    <circle class="cls-4" cx="145.75" cy="100.24" r="2"/>
    <path d="M304.74,83.03c-2.4.16-4.67,1.13-6.42,2.79-.77.73-1.5,1.63-1.93,2.61-.6,1.36-.55,3.1.96,3.84.67.33,1.44.32,2.17.32s1.4-.02,2.09-.08c1.35-.11,2.67-.31,3.91-.87,2.38-1.08,3.93-3.88,2.67-6.37-1.05-2.06-3.76-2.77-5.86-2.23-1.27.32-2.36,1.03-3.38,1.82s-2.13,1.6-2.54,2.81c-.26.78-.12,1.65.44,2.27.45.51,1.07.73,1.71.9,1.45.38,2.93.68,4.43.43,1.12-.18,2.27-.77,3-1.65.91-1.11,1.49-2.91.33-4.09-.94-.96-2.62-1.28-3.92-1.15-1.41.14-2.77.65-3.81,1.65-.66.63-1.11,1.56-.86,2.49s.96,1.42,1.79,1.7c1.48.49,3.21.42,4.67-.11.91-.33,1.4-1.31.9-2.2s-1.39-1.38-2.4-1.44c-.78-.05-1.53.73-1.5,1.5.04.86.66,1.44,1.5,1.5-.19-.04-.2-.03-.03,0-.07,0-.13-.04-.18-.09-.08-.07-.07-.06.04.04-.1-.14-.11-.14-.02,0l.9-2.2c-.21.08-.42.14-.63.2-.05.01-.6.11-.42.09-.22.03-.44.04-.66.03-.11,0-.22,0-.33-.01,0,0-.47-.06-.26-.02-.22-.04-.43-.11-.65-.15-.15-.03-.11-.11.01.02-.08-.09-.11-.13,0,.04.06.1.73,1.09.19.77.08.05-.29.25.03-.02-.24.2.37-.28.21-.16-.14.1.09-.06.12-.08.08-.05.15-.1.23-.14s.16-.09.24-.13c.04-.02.3-.13.13-.06s.1-.03.14-.04c.09-.03.17-.05.26-.08s.18-.04.26-.06c.12-.03.29-.05.07-.02.36-.04.73-.04,1.08,0-.31-.04.17.05.27.07.09.02.17.05.26.08.43.12-.27-.07.14.05.14.04.1.14.02-.03-.09-.19-.09-.12-.15-.45.01.06-.03.28.01.04-.02.08-.05.16-.07.25.02-.06.14-.25,0-.01-.04.07-.08.14-.13.22-.05.08-.17.16,0,0-.08.07-.14.15-.22.23-.03.03-.24.19-.09.09s-.08.04-.11.07c-.07.05-.15.09-.23.13-.04.02-.29.14-.12.06s-.08.03-.13.04c-.08.03-.17.05-.25.07s-.17.04-.25.06c-.1.02-.08.02.03,0l-.17.02c-1.01.05-1.71-.11-2.72-.37-.2-.05-.39-.1-.59-.16-.12-.03-.16-.13,0,0,.15.11.24.19.31.43.03.12.01.21.01.33,0,.04-.15.29,0,0,.02-.04.16-.22,0-.03.07-.09.16-.17.24-.25.28-.28.59-.53.9-.79.41-.34.47-.4.85-.66.33-.23.68-.44,1.04-.62.09-.04.18-.09.27-.13-.21.09.02,0,.06-.02.24-.08.48-.14.72-.21.08-.02.29-.03-.05,0,.08,0,.16-.02.24-.02.16,0,.32,0,.48,0,.07,0,.3.04-.04-.02.08.01.16.03.24.04.18.04.35.09.52.14.05.02.27.12.09.03s.04.03.08.05c.05.03.44.27.28.16-.16-.11.03.03.07.06.05.05.11.11.16.16.04.04.17.23.06.06-.12-.18.05.09.07.13.04.07.07.13.1.2-.14-.3-.05-.11-.03-.04.02.08.04.16.06.25-.05-.28-.01-.06-.02,0,0,.09,0,.18-.01.27.02-.28,0-.06-.01,0-.03.09-.05.18-.08.26-.11.37.13-.18-.07.15-.05.08-.3.47-.15.28-.12.15-.25.28-.38.41-.03.03-.22.19-.02.03-.08.06-.16.11-.24.17-.19.12-.4.24-.61.33-.23.1.17-.06-.07.02-.1.03-.2.07-.29.1-.2.06-.4.11-.6.16s-.41.08-.62.12c-.26.04.19-.02-.07.01-.13.02-.26.03-.39.04-1.02.1-2.05.13-3.07.1-.11,0-.21,0-.32-.01-.22-.01-.08-.05.04.03.08.05.14.1.2.18s.19.32.09.11c.08.17.06.2.04.05-.03.17-.03.2,0,.09.01-.06.03-.12.05-.19.01-.06.11-.26-.01,0,.04-.1.09-.19.15-.28.1-.18.21-.36.33-.53.05-.08.11-.15.16-.23.26-.36-.18.2.11-.13.27-.32.56-.62.87-.9.07-.06.14-.12.21-.18.34-.29-.23.15.13-.11.17-.12.34-.24.52-.35.37-.23.76-.44,1.17-.61-.06.03-.25.09.03,0,.11-.04.22-.08.33-.12.2-.07.4-.12.6-.17.22-.06.45-.1.68-.14.06-.01.29-.02.01,0,.14-.01.28-.03.42-.03.78-.05,1.54-.65,1.5-1.5-.03-.77-.66-1.56-1.5-1.5h0Z"/>
    <path class="cls-5" d="M298.19,85.89c.07.32.14.65.18.97l-.05-.4c.05.36.06.73.01,1.09l.05-.4c-.04.23-.1.46-.19.67l.15-.36c-.07.15-.15.3-.25.43l.23-.3c-.09.12-.19.22-.31.31l.3-.23c-.13.1-.27.18-.42.24l.36-.15c-.63.27-1.34.41-2.02.5l.4-.05s-.09,0-.13,0l.4.05-.06-.02.36.15-.05-.03.3.23-.04-.04.23.3s-.05-.07-.06-.1l.15.36c-.05-.12-.07-.25-.09-.38l.05.4c-.02-.18-.02-.35,0-.53l-.05.4c.03-.22.09-.44.17-.65l-.15.36c.11-.25.24-.49.41-.7l-.23.3c.22-.28.47-.51.75-.73l-.3.23c.47-.36.99-.65,1.51-.93.69-.37.97-1.39.54-2.05-.45-.7-1.31-.94-2.05-.54-.84.46-1.71.95-2.37,1.66-.75.81-1.32,1.94-1.23,3.07.02.29.06.6.16.87.26.73.86,1.27,1.66,1.3.31.01.64-.06.96-.12.25-.05.5-.1.75-.16.52-.13,1.07-.29,1.52-.59.49-.32.93-.77,1.18-1.3.29-.61.45-1.24.45-1.92s-.14-1.36-.28-2.03c-.17-.77-1.1-1.29-1.85-1.05-.81.26-1.23,1.02-1.05,1.85h0Z"/>
    <rect class="cls-5" x="40.38" y="54.77" width="1.92" height="16" transform="translate(-25.85 29.08) rotate(-30)"/>
    <rect class="cls-5" x="41.16" y="42.88" width="2.48" height="25.93" transform="translate(-22.24 28.69) rotate(-30)"/>
    <ellipse class="cls-5" cx="59" cy="145.5" rx="4" ry="4.5"/>
    <rect class="cls-5" x="305.07" y="144.35" width="12.93" height="10.65"/>
    <path class="cls-1" d="M119.17,129.36c-.55-.21-1.2-.08-1.69.19-.46.25-.79.67-.99,1.14s-.26,1.04-.07,1.54c.14.36.27.58.52.87.15.17.34.31.53.44s.41.21.62.28c.05.02.11.03.16.04.18.03.36.06.54.07.12,0,.23-.02.35-.03s.23-.02.35-.06c.38-.11.64-.27.93-.52.43-.36.69-.97.68-1.52s-.26-1.14-.69-1.53c-.65-.6-1.51-.84-2.31-1.15-.27-.07-.53-.07-.8,0-.25.07-.47.2-.66.39-.31.3-.56.73-.63,1.16-.05.34-.07.53-.02.85s.11.53.25.84c.33.73,1.13,1.26,1.9,1.41.45.09.85.11,1.3.05.32-.04.57-.11.86-.27.14-.08.27-.19.38-.29.04-.04.08-.07.11-.11.25-.3.36-.48.49-.86.07-.21.09-.44.1-.66.02-.43-.11-.9-.33-1.28-.41-.73-1.19-1.18-1.98-1.4-.12-.03-.24-.06-.36-.08-.25-.04-.52-.09-.78-.07-.24.02-.49.04-.72.13-.35.13-.6.27-.88.52-.08.07-.14.16-.21.25s-.14.17-.19.26c-.1.19-.2.4-.24.61-.1.44-.11.9.02,1.34.27.88,1,1.57,1.9,1.78.51.12.99.12,1.5,0,.73-.16,1.29-.69,1.51-1.4s-.05-1.48-.53-2.02c-.36-.4-.85-.59-1.34-.79-.2-.06-.4-.07-.6-.03-.2,0-.39.07-.56.18-.33.21-.58.51-.69.9-.17.6-.06,1.29.3,1.81.31.44.66.75,1.09,1.05.62.44,1.51.6,2.19.18.74-.46,1.05-1.3.87-2.15-.04-.16-.11-.32-.18-.47-.03-.06-.06-.12-.11-.18-.16-.23-.32-.42-.54-.6-.32-.26-.64-.51-.96-.76-.16-.12-.32-.25-.49-.35-.16-.09-.34-.16-.52-.23-.08-.03-.16-.06-.24-.07-.61-.12-1.24-.07-1.77.27-.74.47-1.12,1.35-.9,2.21.09.35.27.66.52.92.34.35.82.52,1.3.54.37.02.8-.18,1.06-.44s.46-.69.44-1.06-.14-.79-.44-1.06-.65-.42-1.06-.44h-.03c.13.02.27.03.4.05-.03,0-.06-.01-.09-.02l.36.15s-.07-.04-.1-.06l.3.23s-.04-.04-.06-.06l.23.3s-.05-.07-.06-.11l.15.36s-.03-.1-.04-.15l.05.4s0-.08,0-.13l-.05.4s.02-.08.03-.12l-.15.36s.04-.08.07-.12l-.23.3s.06-.07.1-.1l-.3.23s.1-.06.16-.09l-.36.15c.06-.02.12-.04.18-.05l-.4.05c.09-.01.17-.01.26,0l-.4-.05c.1.01.19.04.28.08l-.36-.15c.18.08.34.19.5.31l-.3-.23c.2.16.41.32.61.48.18.14.37.28.51.46l-.23-.3c.04.06.08.12.11.18l-.15-.36s.03.09.03.13l-.05-.4s0,.09,0,.14l.05-.4s-.02.09-.04.13l.15-.36s-.03.06-.05.08l.23-.3s-.04.05-.07.07l.3-.23s-.04.02-.06.03l.36-.15s-.05.02-.08.02l.4-.05s-.08,0-.13,0l.4.05s-.08-.02-.13-.04l.36.15c-.16-.07-.31-.17-.45-.28l.3.23c-.15-.11-.28-.24-.4-.38l.23.3c-.06-.08-.1-.15-.14-.24l.15.36c-.02-.06-.04-.12-.05-.18l.05.4c0-.05,0-.1,0-.15l-.05.4s.01-.08.02-.12l-1.85,1.05c.05.02.11.04.16.07l-.36-.15c.13.06.26.12.37.21l-.3-.23c.06.04.11.09.15.15l-.23-.3c.04.05.07.1.1.16l-.15-.36c.02.06.04.12.05.18l-.05-.4s0,.1,0,.15l.05-.4s-.02.07-.03.1l.15-.36s-.03.06-.05.09l.23-.3s-.05.05-.08.08l.3-.23s-.07.04-.1.06l.36-.15c-.11.05-.23.07-.35.09l.4-.05c-.15.02-.29.02-.43,0l.4.05c-.12-.02-.23-.05-.34-.09l.36.15c-.11-.05-.21-.1-.3-.17l.3.23c-.07-.06-.13-.12-.19-.19l.23.3c-.05-.06-.09-.13-.12-.21l.15.36c-.03-.09-.06-.17-.07-.26l.05.4c-.01-.09-.01-.18,0-.27l-.05.4c.01-.09.03-.18.07-.26l-.15.36c.03-.07.07-.14.12-.2l-.23.3c.04-.05.09-.1.14-.14l-.3.23c.05-.04.11-.07.16-.09l-.36.15c.08-.03.16-.05.25-.07l-.4.05c.13-.02.27-.01.4,0l-.4-.05c.27.04.53.11.78.21l-.36-.15c.14.06.27.13.39.23l-.3-.23c.09.07.16.14.23.23l-.23-.3c.05.07.09.14.13.21l-.15-.36c.03.08.06.17.07.26l-.05-.4c0,.09,0,.18,0,.27l.05-.4c-.01.08-.03.15-.06.22l.15-.36s-.05.09-.08.14l.23-.3s-.07.08-.11.11l.3-.23s-.1.06-.15.09l.36-.15c-.08.03-.15.05-.23.06l.4-.05c-.19.02-.37.02-.56,0l.4.05c-.17-.02-.33-.06-.48-.12l.36.15c-.11-.05-.22-.11-.32-.18l.3.23c-.08-.07-.16-.14-.22-.22l.23.3c-.05-.07-.09-.14-.13-.22l.15.36c-.04-.09-.06-.18-.08-.28l.05.4c0-.08-.01-.17,0-.25l-.05.4c.01-.08.03-.16.06-.24l-.15.36c.03-.07.06-.12.11-.18l-.23.3s.05-.05.07-.08l-1.46.39c.36.14.73.27,1.09.42l-.36-.15c.17.07.33.16.47.27l-.3-.23c.08.06.15.13.21.2l-.23-.3s.06.09.09.15l-.15-.36s.03.08.04.13l-.05-.4s0,.09,0,.13l.05-.4s-.02.09-.03.14l.15-.36s-.04.09-.07.13l.23-.3s-.08.09-.13.13l.3-.23c-.05.04-.11.07-.16.09l.36-.15c-.08.03-.17.06-.25.07l.4-.05c-.09,0-.17,0-.26,0l.4.05c-.1-.01-.19-.04-.28-.08l.36.15c-.09-.04-.17-.09-.25-.15l.3.23c-.07-.05-.12-.11-.18-.18l.23.3c-.04-.06-.08-.12-.11-.18l.15.36c-.03-.07-.05-.13-.06-.21l.05.4c0-.06,0-.12,0-.18l-.05.4c.01-.06.03-.12.05-.17l-.15.36c.03-.07.07-.13.11-.19l-.23.3c.05-.06.1-.11.15-.15l-.3.23c.06-.04.12-.08.18-.11l-.36.15c.05-.02.11-.04.17-.05l-.4.05c.06,0,.11,0,.17,0l-.4-.05s.09.02.14.04c.34.13.85.03,1.16-.15s.61-.54.69-.9c.09-.38.07-.81-.15-1.16l-.23-.3c-.19-.19-.41-.31-.66-.39h0Z"/>
    <path d="M120.53,131.51s-.05-.01-.08-.02c-.14-.03-.3-.05-.44-.06-.02,0-.05,0-.07,0-.15.01-.31.03-.46.07-.35.09-.61.27-.88.5-.16.14-.3.33-.41.52-.08.15-.15.31-.2.47-.02.05-.03.1-.04.16-.05.36-.1.68.02,1.04.04.13.1.27.17.4.01.02.02.04.03.06.08.12.17.24.26.34.02.02.04.04.06.06.12.11.26.23.41.3.3.15.38.17.67.21.11.01.22.04.33.03.15-.01.31-.03.45-.06.02,0,.05-.01.07-.02.38-.13.59-.26.9-.52.04-.03.07-.07.1-.11.11-.13.23-.27.31-.42.34-.63.38-1.38,0-2.01-.04-.07-.11-.15-.16-.21-.06-.08-.11-.16-.18-.22-.11-.09-.23-.2-.36-.27-.09-.05-.27-.13-.38-.16-.02,0-.03-.01-.05-.02-.47-.12-1-.05-1.41.21-.12.08-.25.18-.36.28-.02.02-.04.04-.05.06-.23.26-.35.46-.46.79-.06.17-.08.35-.08.53,0,.29.06.49.16.74.11.26.18.39.4.62.13.14.29.26.45.36.03.02.06.03.1.05.14.06.29.14.44.18.03,0,.06.02.1.02.16.03.32.05.48.06.04,0,.07,0,.11,0,.16-.01.33-.04.49-.07.09-.02.18-.05.27-.08.3-.12.56-.24.83-.41.23-.13.4-.31.54-.54.11-.17.17-.36.18-.56.04-.2.04-.4-.03-.6-.07-.25-.2-.47-.39-.66-.19-.16-.39-.31-.59-.47-.1-.08-.21-.16-.33-.22-.05-.03-.11-.05-.16-.08-.17-.07-.34-.16-.52-.21s-.36-.06-.54-.08c-.06,0-.13-.01-.19,0-.4.02-.64.09-.99.26-.04.02-.08.04-.12.07-.14.1-.28.2-.4.31-.08.07-.14.16-.2.24-.07.09-.14.17-.19.27-.08.14-.14.3-.19.45-.04.11-.04.22-.06.33-.01.1-.04.2-.03.31,0,.14.03.3.06.44,0,.02,0,.04.02.07.04.13.11.28.17.4,0,.02.02.03.03.05.07.11.17.24.26.34.02.02.04.04.06.06.29.26.58.41.95.53.12.04.25.07.38.1.25.05.5.09.76.09.06,0,.12,0,.17,0,.19-.02.38-.03.57-.09.17-.05.34-.13.49-.2.11-.05.19-.12.28-.2.08-.06.17-.12.23-.2.1-.12.22-.25.29-.39.04-.08.07-.16.11-.24s.07-.16.1-.23c.01-.04.02-.09.03-.13.03-.17.07-.35.06-.52,0-.15-.03-.3-.06-.45,0-.02,0-.04-.01-.06s-.01-.04-.02-.06c-.05-.13-.11-.28-.17-.41,0-.02-.02-.04-.03-.05-.07-.11-.17-.24-.26-.34-.01-.01-.03-.03-.04-.04-.1-.09-.23-.19-.35-.26s-.27-.12-.4-.17c-.02,0-.05-.02-.07-.02-.39-.09-.81-.05-1.16.15-.17.09-.32.22-.42.39-.13.14-.22.31-.27.51-.09.38-.07.81.15,1.16.21.32.51.6.9.69.02,0,.05.01.07.02l-.36-.15s.05.03.08.04l-.3-.23s.05.05.07.07l-.23-.3s.04.06.05.09l-.15-.36s.03.09.04.14l-.05-.4c0,.06,0,.12,0,.17l.05-.4c0,.07-.03.13-.05.19l.15-.36s-.05.09-.08.14l.23-.3s-.06.07-.09.1l.3-.23s-.1.07-.16.09l.36-.15c-.08.03-.16.05-.25.07l.4-.05c-.14.02-.27.01-.41,0l.4.05c-.22-.03-.44-.08-.64-.16l.36.15c-.05-.02-.11-.05-.15-.08l.3.23s-.06-.05-.09-.08l.23.3s-.04-.07-.06-.1l.15.36s-.02-.06-.03-.09l.05.4s0-.09,0-.14l-.05.4c0-.05.02-.11.04-.16l-.15.36c.03-.07.07-.13.11-.19l-.23.3c.04-.05.09-.1.14-.14l-.3.23c.05-.04.11-.08.17-.1l-.36.15c.05-.02.11-.04.17-.05l-.4.05c.08,0,.17,0,.25,0l-.4-.05c.11.02.21.05.31.09l-.36-.15c.19.08.35.19.51.32l-.3-.23c.09.07.17.14.26.21l.3-2.36c-.14.09-.29.18-.45.24l.36-.15c-.11.04-.22.08-.33.1l.4-.05c-.08,0-.15.01-.23,0l.4.05c-.07-.01-.13-.03-.19-.05l.36.15c-.06-.03-.12-.06-.17-.09l.3.23s-.07-.06-.1-.1l.23.3s-.05-.08-.07-.12l.15.36s-.02-.07-.03-.11l.05.4s0-.06,0-.09l-.05.4s.02-.07.03-.11l-.15.36s.04-.07.06-.1l-.23.3s.06-.07.1-.1l-.3.23s.06-.04.1-.05l-.36.15s.05-.02.08-.02l-.4.05s.05,0,.08,0l-.4-.05s.04,0,.06.02l-.36-.15s.04.02.06.04l-.3-.23s.05.05.08.08l-.23-.3s.05.07.07.11l-.15-.36s.02.07.03.11l-.05-.4s0,.08,0,.13l.05-.4s-.02.1-.04.14l.15-.36c-.03.06-.06.11-.1.17l.23-.3c-.04.05-.09.1-.14.14l.3-.23c-.05.04-.11.07-.17.1l.36-.15s-.09.03-.14.04l.4-.05s-.1,0-.15,0l.4.05s-.07-.02-.11-.03l.36.15s-.07-.04-.1-.06l.3.23s-.06-.05-.08-.08l.23.3s-.04-.06-.06-.09l.15.36s-.03-.09-.04-.14l.05.4s0-.1,0-.15l-.05.4c0-.07.03-.14.06-.2l-.15.36c.03-.06.06-.11.1-.17l-.23.3c.04-.05.08-.1.13-.13l-.3.23s.08-.05.13-.07l-.36.15s.08-.03.12-.03l-.4.05s.08,0,.13,0l-.4-.05s.05.01.08.02c.2.06.4.07.6.03.2,0,.39-.07.56-.18.17-.09.32-.22.42-.39.13-.14.22-.31.27-.51.09-.38.07-.81-.15-1.16s-.51-.57-.9-.69h0Z"/>
  </g>
</svg>