<?xml version="1.0" encoding="UTF-8"?>
<svg id="Layer_1" xmlns="http://www.w3.org/2000/svg" viewBox="0 0 1366 768">
  <path d="M358.5,805.5c-14.1,3.41,248.91-18.79,211.5-194.5-38.77-182.12-212.42-195.08-359-115-108,59-138-135-48-279,0,0-227.5,258.5-47.5,486.5,0,0,94,107,243,102Z"/>
  <circle cx="185.5" cy="422.5" r="38.5"/>
  <circle cx="164.5" cy="334.5" r="21.5"/>
  <circle cx="172.5" cy="272.5" r="12.5"/>
  <path d="M147-97C71.82-87.03-54.83-6.69-73,125c-13.69,99.21,38.31,197.74,65,195,38.92-3.99,26.46-223.53,108-244,30.84-7.74,55.12,18,85,0,30.36-18.3,34.92-62.75,37-83,2.17-21.13,6.06-59.03-17-79-18.35-15.89-44.88-12.74-58-11Z"/>
  <path d="M1311.72,120.34c-4.45,33.98-86.99,56.6-151.37,45.8-33.56-5.63-58.53-19.72-57.62-23.35,1.18-4.7,44.71,12.03,65.61-8.23,12.89-12.49,15.99-37.9,5.97-47.48-15.21-14.55-50.04,17.55-78.1,1.01-13.35-7.86-23.85-25.96-19.47-37.83,9.58-25.97,93.02-29.33,158.32-.16,9.27,4.14,81.01,37.01,76.66,70.23Z"/>
  <circle cx="1149" cy="111" r="8"/>
  <ellipse cx="1283.5" cy="667" rx="177.5" ry="195"/>
  <path d="M729.85-54.72c-101.44,22.29-164.69-30.63-183.62-5.62-15.28,20.18,11.57,73.56,48.99,101.39,38.92,28.94,98.55,37.15,140.65,8.18,42.52-29.26,60.7-91.99,43.8-108.24-9.02-8.68-24.99-1.16-49.83,4.29Z"/>
  <circle cx="1255.5" cy="200.5" r="9.5"/>
  <circle cx="1017.5" cy="669.5" r="25.5"/>
  <circle cx="413.5" cy="42.5" r="13.5"/>
  <circle cx="41.5" cy="715.5" r="20.5"/>
  <circle cx="104" cy="130" r="19"/>
  <circle cx="889" cy="44" r="15"/>
  <circle cx="1310.5" cy="430.5" r="8.5"/>
  <path d="M1107,468c-7.21,6.99-11.12,20.22-7,25,5.41,6.28,25.75-.71,38-12,4.19-3.86,8.67-7.99,9-14,.79-14.37-22.8-26.98-28-23-2.92,2.24,1.43,8.6-3,16-2.53,4.22-5.29,4.4-9,8Z"/>
</svg>