<?xml version="1.0" encoding="UTF-8"?>
<svg id="Layer_1" xmlns="http://www.w3.org/2000/svg" viewBox="0 0 252.5 56">
  <defs>
    <style>
      .cls-1, .cls-2 {
        fill: aqua;
      }

      .cls-3 {
        fill: none;
      }

      .cls-3, .cls-4 {
        stroke: #000;
        stroke-miterlimit: 10;
      }

      .cls-2 {
        letter-spacing: -.02em;
      }

      .cls-5 {
        fill: #f0f;
      }

      .cls-6 {
        font-family: GlassAntiqua-Regular, 'Glass Antiqua';
        font-size: 72px;
      }

      .cls-7 {
        fill: #ff0;
      }
    </style>
  </defs>
  <text class="cls-6" transform="translate(.28 46.78)"><tspan class="cls-2" x="0" y="0">P</tspan><tspan class="cls-1" x="32.62" y="0">h</tspan><tspan class="cls-5" x="67.82" y="0">ig</tspan><tspan class="cls-7" x="117.93" y="0">me</tspan><tspan x="195.76" y="0">nt</tspan></text>
  <path d="M93.7,22.8h0c2,0,3.62,1.07,3.95,2.61.19.88-.07,1.81-.71,2.61-.69.87-1.74,1.49-2.96,1.75-.39.08-.79.13-1.19.13-2,0-3.62-1.07-3.95-2.61-.19-.88.07-1.81.71-2.61.69-.87,1.74-1.49,2.96-1.75.39-.08.79-.13,1.19-.13M93.7,21.8c-.46,0-.92.05-1.39.15-2.97.64-4.96,3.12-4.44,5.55.44,2.04,2.51,3.4,4.93,3.4.46,0,.92-.05,1.39-.15,2.97-.64,4.96-3.12,4.44-5.55-.44-2.04-2.51-3.4-4.93-3.4h0Z"/>
  <path d="M107.59,20.84h0c.09,0,.19,0,.28,0,1.12.07,2.14.5,2.88,1.24.71.7,1.06,1.59,1.01,2.5-.11,1.83-1.87,3.26-4.01,3.26-.09,0-.19,0-.28,0-2.26-.13-4-1.81-3.89-3.73.11-1.83,1.87-3.26,4.01-3.26M107.59,19.84c-2.66,0-4.87,1.83-5.01,4.21-.14,2.48,2.02,4.63,4.83,4.79.11,0,.23,0,.34,0,2.66,0,4.87-1.83,5.01-4.21.14-2.48-2.02-4.63-4.83-4.79-.11,0-.23-.01-.34,0h0Z"/>
  <path class="cls-3" d="M97.74,24.85s2.33-3,5.44-1"/>
  <circle class="cls-4" cx="94.37" cy="24.85" r="2"/>
  <circle class="cls-4" cx="108.49" cy="23.09" r="2"/>
</svg>